<svg xmlns="http://www.w3.org/2000/svg" viewBox="0 0 64 64"><rect width="64" height="64" rx="14" fill="#101317"/><path d="M0 0h10c8 0 12 4 12 10 0 4-2 7-5 8 4 1 7 4 7 9 0 7-5 11-13 11H0V0Zm7 6v9h3c4 0 6-2 6-5s-2-4-6-4H7Zm0 15v11h4c4 0 6-2 6-5s-2-6-6-6H7Z" transform="translate(7 13) scale(.96 1)" fill="#edf1f6" fill-rule="evenodd"/><path d="M0 0h10c8 0 12 4 12 10 0 4-2 7-5 8 4 1 7 4 7 9 0 7-5 11-13 11H0V0Zm7 6v9h3c4 0 6-2 6-5s-2-4-6-4H7Zm0 15v11h4c4 0 6-2 6-5s-2-6-6-6H7Z" transform="translate(34 13) scale(.96 1)" fill="#5ca8ff" fill-rule="evenodd"/></svg>